<svg width="21" height="21" viewBox="0 0 21 21" fill="none" xmlns="http://www.w3.org/2000/svg">
<path d="M0.300068 19.28L9.90007 9.68L8.50007 8.26L7.78007 8.97C7.68755 9.0627 7.57767 9.13625 7.45669 9.18643C7.33572 9.23661 7.20604 9.26244 7.07507 9.26244C6.9441 9.26244 6.81442 9.23661 6.69344 9.18643C6.57247 9.13625 6.46258 9.0627 6.37007 8.97L5.66007 8.26C5.56736 8.16748 5.49382 8.05759 5.44364 7.93662C5.39345 7.81565 5.36762 7.68597 5.36762 7.555C5.36762 7.42403 5.39345 7.29435 5.44364 7.17337C5.49382 7.0524 5.56736 6.94251 5.66007 6.85L11.3201 1.19C11.4126 1.09729 11.5225 1.02375 11.6434 0.973564C11.7644 0.923383 11.8941 0.897552 12.0251 0.897552C12.156 0.897552 12.2857 0.923383 12.4067 0.973564C12.5277 1.02375 12.6376 1.09729 12.7301 1.19L13.4401 1.9C13.8301 2.29 13.8301 2.92 13.4401 3.31L12.7301 4L14.1501 5.43C14.2426 5.33729 14.3525 5.26375 14.4734 5.21356C14.5944 5.16338 14.7241 5.13755 14.8551 5.13755C14.986 5.13755 15.1157 5.16338 15.2367 5.21356C15.3577 5.26375 15.4676 5.33729 15.5601 5.43C15.9501 5.82 15.9501 6.46 15.5601 6.85L16.9701 8.26L17.6801 7.55C18.0701 7.16 18.7101 7.16 19.1001 7.55L19.8001 8.26C20.1901 8.65 20.1901 9.29 19.8001 9.68L14.1501 15.33C13.7601 15.72 13.1201 15.72 12.7301 15.33L12.0301 14.63C11.9351 14.5377 11.8596 14.4274 11.8081 14.3054C11.7566 14.1834 11.73 14.0524 11.73 13.92C11.73 13.7876 11.7566 13.6565 11.8081 13.5346C11.8596 13.4126 11.9351 13.3023 12.0301 13.21L12.7301 12.5L11.3201 11.09L1.71007 20.7C1.61755 20.7927 1.50767 20.8662 1.38669 20.9164C1.26572 20.9666 1.13604 20.9924 1.00507 20.9924C0.8741 20.9924 0.744417 20.9666 0.623444 20.9164C0.502471 20.8662 0.392582 20.7927 0.300068 20.7C-0.0899316 20.31 -0.0899316 19.67 0.300068 19.28ZM18.0001 18C18.5305 18 19.0392 18.2107 19.4143 18.5858C19.7894 18.9609 20.0001 19.4696 20.0001 20V21H10.0001V20C10.0001 19.4696 10.2108 18.9609 10.5859 18.5858C10.9609 18.2107 11.4696 18 12.0001 18H18.0001Z" fill="white"/>
</svg>
